<?xml version="1.0" encoding="UTF-8" ?>
<!DOCTYPE svg PUBLIC "-//W3C//DTD SVG 1.1//EN" "http://www.w3.org/Graphics/SVG/1.1/DTD/svg11.dtd">
<svg width="200pt" height="200pt" viewBox="0 0 200 200" version="1.1" xmlns="http://www.w3.org/2000/svg">
<g id="#000000ff">
<path fill="#000000" opacity="1.00" d=" M 0.00 0.00 L 136.05 0.00 C 136.91 3.27 137.39 6.61 137.76 9.97 C 151.50 5.44 157.82 17.45 162.45 28.04 C 162.70 26.46 162.95 24.88 163.20 23.29 C 165.21 24.94 167.23 26.57 169.27 28.18 C 167.37 17.14 161.81 2.35 147.39 5.62 C 145.90 3.72 144.43 1.79 142.80 0.00 L 200.00 0.00 L 200.00 159.89 C 186.56 148.61 171.26 139.95 156.02 131.42 C 153.90 124.74 151.48 118.15 148.92 111.62 C 146.19 105.44 149.79 96.92 156.77 95.67 C 159.24 85.62 166.23 76.67 165.29 65.84 C 160.64 68.04 156.80 71.50 153.42 75.32 C 148.79 58.99 150.76 40.48 136.28 28.72 C 136.63 30.28 136.99 31.85 137.37 33.41 C 126.51 25.50 109.61 40.04 101.74 26.97 C 104.69 25.86 107.73 25.01 110.80 24.33 C 109.50 23.53 108.20 22.72 106.89 21.93 C 109.65 19.55 112.56 17.36 115.59 15.36 C 113.54 15.05 111.49 14.76 109.44 14.46 C 110.75 12.81 112.08 11.17 113.40 9.53 C 112.32 9.08 111.24 8.64 110.16 8.19 C 111.04 7.11 111.91 6.03 112.78 4.95 C 108.05 3.85 103.08 3.57 98.55 5.61 C 103.12 11.26 95.38 14.37 91.45 16.90 C 94.14 18.22 96.25 20.36 95.18 23.54 C 96.87 23.94 98.58 24.29 100.31 24.48 C 97.83 25.44 95.54 26.80 93.32 28.25 C 94.67 29.28 96.03 30.29 97.39 31.31 C 89.54 35.74 82.54 41.90 80.87 51.24 C 79.90 53.98 79.36 56.84 78.82 59.68 C 74.27 76.19 70.70 96.48 82.22 111.01 C 84.54 114.78 87.29 118.32 90.77 121.09 C 91.60 121.85 92.43 122.62 93.20 123.45 L 93.43 124.16 C 85.55 132.77 78.60 142.12 71.65 151.48 C 70.89 152.43 70.13 153.37 69.31 154.28 C 65.22 157.39 60.51 159.53 56.18 162.28 C 41.57 169.80 34.64 185.24 29.60 200.00 L 0.00 200.00 L 0.00 0.00 M 145.61 16.56 C 147.09 18.88 150.35 21.08 149.10 24.20 C 146.89 22.27 144.74 20.03 141.70 19.53 C 147.74 24.42 149.62 34.62 158.09 35.80 C 156.43 32.19 154.35 28.81 152.02 25.60 C 152.89 25.70 153.77 25.79 154.65 25.88 C 154.12 23.72 153.58 21.55 153.03 19.39 C 154.32 20.38 155.60 21.37 156.91 22.33 C 156.50 15.14 150.66 16.94 145.61 16.56 Z" />
</g>
<g id="#2b2b2bff">
<path fill="#2b2b2b" opacity="1.00" d=" M 136.05 0.00 L 142.80 0.00 C 144.43 1.79 145.90 3.72 147.39 5.62 C 161.81 2.35 167.37 17.14 169.27 28.18 C 167.23 26.57 165.21 24.94 163.20 23.29 C 162.95 24.88 162.70 26.46 162.45 28.04 C 157.82 17.45 151.50 5.44 137.76 9.97 C 137.39 6.61 136.91 3.27 136.05 0.00 Z" />
</g>
<g id="#272727ff">
<path fill="#272727" opacity="1.00" d=" M 98.55 5.61 C 103.08 3.57 108.05 3.85 112.78 4.95 C 111.91 6.03 111.04 7.11 110.16 8.19 C 111.24 8.64 112.32 9.08 113.40 9.53 C 112.08 11.17 110.75 12.81 109.44 14.46 C 111.49 14.76 113.54 15.05 115.59 15.36 C 112.56 17.36 109.65 19.55 106.89 21.93 C 108.20 22.72 109.50 23.53 110.80 24.33 C 107.73 25.01 104.69 25.86 101.74 26.97 C 109.61 40.04 126.51 25.50 137.37 33.41 C 136.99 31.85 136.63 30.28 136.28 28.72 C 150.76 40.48 148.79 58.99 153.42 75.32 C 156.80 71.50 160.64 68.04 165.29 65.84 C 166.23 76.67 159.24 85.62 156.77 95.67 C 144.96 89.72 152.79 78.10 151.34 68.38 C 145.10 57.31 145.64 40.72 132.53 34.86 C 119.93 33.78 105.53 31.17 93.88 35.70 C 89.16 40.55 85.94 46.68 80.87 51.24 C 82.54 41.90 89.54 35.74 97.39 31.31 C 96.03 30.29 94.67 29.28 93.32 28.25 C 95.54 26.80 97.83 25.44 100.31 24.48 C 98.58 24.29 96.87 23.94 95.18 23.54 C 96.25 20.36 94.14 18.22 91.45 16.90 C 95.38 14.37 103.12 11.26 98.55 5.61 Z" />
</g>
<g id="#202020ff">
<path fill="#202020" opacity="1.00" d=" M 145.61 16.56 C 150.66 16.94 156.50 15.14 156.91 22.33 C 155.60 21.37 154.32 20.38 153.03 19.39 C 153.58 21.55 154.12 23.72 154.65 25.88 C 153.77 25.79 152.89 25.70 152.02 25.60 C 154.35 28.81 156.43 32.19 158.09 35.80 C 149.62 34.62 147.74 24.42 141.70 19.53 C 144.74 20.03 146.89 22.27 149.10 24.20 C 150.35 21.08 147.09 18.88 145.61 16.56 Z" />
</g>
<g id="#434343ff">
<path fill="#434343" opacity="1.00" d=" M 93.88 35.70 C 105.53 31.17 119.93 33.78 132.53 34.86 C 145.64 40.72 145.10 57.31 151.34 68.38 C 152.79 78.10 144.96 89.72 156.77 95.67 C 149.79 96.92 146.19 105.44 148.92 111.62 C 148.17 113.32 147.42 115.02 146.54 116.67 C 146.74 116.10 147.14 114.96 147.34 114.39 C 133.96 124.83 116.92 126.86 100.56 127.50 C 106.38 134.68 116.82 135.19 124.15 140.57 C 122.85 141.91 121.55 143.26 120.32 144.67 C 115.09 144.87 109.70 147.26 104.67 144.77 C 117.62 136.95 95.90 132.03 93.20 123.45 C 92.43 122.62 91.60 121.85 90.77 121.09 C 91.27 121.26 92.28 121.60 92.79 121.77 C 110.65 128.16 130.20 117.74 136.66 100.34 C 128.51 101.05 122.89 108.69 114.54 108.01 C 114.54 106.72 114.54 105.43 114.55 104.14 C 115.69 104.11 116.83 104.15 117.98 104.18 C 117.94 103.32 117.91 102.46 117.88 101.60 C 110.18 103.20 102.37 98.10 95.13 101.01 C 92.81 99.82 90.43 98.61 87.79 98.32 C 76.65 99.03 83.58 88.70 90.08 87.00 C 91.14 86.37 92.19 85.72 93.25 85.08 C 93.41 85.57 93.73 86.56 93.90 87.05 C 92.07 89.69 90.18 92.30 88.25 94.87 C 95.20 97.47 102.55 98.94 109.99 98.94 C 106.03 96.00 100.33 94.43 98.32 89.54 C 100.09 90.07 101.86 90.62 103.62 91.21 C 104.29 91.46 105.62 91.97 106.28 92.22 C 107.51 92.60 108.75 92.89 110.01 93.16 C 108.93 93.69 107.86 94.23 106.80 94.79 C 112.20 98.24 125.88 98.37 122.01 88.92 C 122.28 88.61 122.81 87.98 123.08 87.67 C 125.01 89.60 127.04 91.44 129.10 93.23 C 138.30 105.29 150.53 81.19 140.71 76.77 C 142.01 75.97 143.34 75.24 144.68 74.51 C 139.54 68.51 132.93 63.22 124.54 63.63 L 125.38 63.33 C 126.01 63.22 127.26 62.99 127.88 62.87 C 131.43 62.44 135.01 62.36 138.58 62.26 C 143.39 46.79 129.04 29.96 112.86 36.79 L 112.42 36.93 C 106.68 34.11 99.94 33.53 93.88 35.70 M 119.33 100.30 C 120.08 101.46 120.82 102.62 121.57 103.78 C 124.86 103.23 128.09 102.13 130.32 99.53 C 126.65 99.59 122.99 99.96 119.33 100.30 Z" />
</g>
<g id="#6d6d6dff">
<path fill="#6d6d6d" opacity="1.00" d=" M 93.88 35.70 C 99.94 33.53 106.68 34.11 112.42 36.93 C 111.20 37.88 110.02 38.89 108.77 39.82 L 108.23 40.17 C 108.26 39.08 108.30 38.00 108.34 36.91 C 94.29 31.08 84.69 46.64 82.06 58.20 C 87.09 57.69 92.17 58.19 96.98 59.78 C 91.27 60.69 84.66 63.22 82.82 69.30 C 87.11 67.96 91.11 64.94 95.83 66.07 C 94.19 66.85 92.89 68.13 91.58 69.36 C 94.13 71.20 96.71 70.40 98.88 68.42 C 100.17 69.16 101.42 69.97 102.72 70.71 C 104.56 67.03 103.45 63.19 100.10 60.87 C 104.28 62.12 109.31 65.70 105.89 70.39 C 101.98 74.93 96.07 78.42 89.94 76.16 C 87.19 74.04 84.51 71.83 81.70 69.79 C 79.47 76.23 77.90 83.48 81.02 89.92 C 84.07 89.03 87.13 88.19 90.08 87.00 C 83.58 88.70 76.65 99.03 87.79 98.32 C 84.32 106.50 89.52 114.49 92.79 121.77 C 92.28 121.60 91.27 121.26 90.77 121.09 C 87.29 118.32 84.54 114.78 82.22 111.01 C 74.60 94.86 78.59 76.76 78.82 59.68 C 79.36 56.84 79.90 53.98 80.87 51.24 C 85.94 46.68 89.16 40.55 93.88 35.70 Z" />
<path fill="#6d6d6d" opacity="1.00" d=" M 140.71 76.77 C 150.53 81.19 138.30 105.29 129.10 93.23 C 136.98 93.66 142.22 85.12 138.22 78.34 C 139.05 77.83 139.88 77.30 140.71 76.77 Z" />
</g>
<g id="#696969ff">
<path fill="#696969" opacity="1.00" d=" M 112.86 36.79 C 129.04 29.96 143.39 46.79 138.58 62.26 C 135.01 62.36 131.43 62.44 127.88 62.87 C 138.19 61.55 129.79 52.79 129.13 46.97 C 128.56 39.04 119.06 37.93 112.86 36.79 Z" />
</g>
<g id="#959595ff">
<path fill="#959595" opacity="1.00" d=" M 82.06 58.20 C 84.69 46.64 94.29 31.08 108.34 36.91 C 108.30 38.00 108.26 39.08 108.23 40.17 C 97.95 33.46 89.16 46.94 91.34 55.64 C 101.44 61.49 115.60 63.99 126.48 58.73 C 123.68 54.29 119.28 50.46 121.10 44.70 C 117.86 42.38 112.54 42.04 108.77 39.82 C 110.02 38.89 111.20 37.88 112.42 36.93 L 112.86 36.79 C 119.06 37.93 128.56 39.04 129.13 46.97 C 129.79 52.79 138.19 61.55 127.88 62.87 C 127.26 62.99 126.01 63.22 125.38 63.33 C 121.08 63.88 116.63 64.06 112.56 65.71 C 111.73 73.98 118.83 90.92 106.28 92.22 C 105.62 91.97 104.29 91.46 103.62 91.21 C 105.90 90.67 108.16 90.03 110.42 89.40 C 111.23 82.58 113.68 75.49 110.73 68.81 C 109.18 69.53 107.39 69.56 105.89 70.39 C 109.31 65.70 104.28 62.12 100.10 60.87 C 99.08 60.44 98.04 60.08 96.98 59.78 C 92.17 58.19 87.09 57.69 82.06 58.20 Z" />
</g>
<g id="#bababaff">
<path fill="#bababa" opacity="1.00" d=" M 91.34 55.64 C 89.16 46.94 97.95 33.46 108.23 40.17 L 108.77 39.82 C 112.54 42.04 117.86 42.38 121.10 44.70 C 119.28 50.46 123.68 54.29 126.48 58.73 C 115.60 63.99 101.44 61.49 91.34 55.64 Z" />
</g>
<g id="#424242ff">
<path fill="#424242" opacity="1.00" d=" M 82.22 111.01 C 70.70 96.48 74.27 76.19 78.82 59.68 C 78.59 76.76 74.60 94.86 82.22 111.01 Z" />
</g>
<g id="#292929ff">
<path fill="#292929" opacity="1.00" d=" M 82.82 69.30 C 84.66 63.22 91.27 60.69 96.98 59.78 C 98.04 60.08 99.08 60.44 100.10 60.87 C 103.45 63.19 104.56 67.03 102.72 70.71 C 101.42 69.97 100.17 69.16 98.88 68.42 C 96.71 70.40 94.13 71.20 91.58 69.36 C 92.89 68.13 94.19 66.85 95.83 66.07 C 91.11 64.94 87.11 67.96 82.82 69.30 Z" />
</g>
<g id="#6e6e6eff">
<path fill="#6e6e6e" opacity="1.00" d=" M 112.56 65.71 C 116.63 64.06 121.08 63.88 125.38 63.33 L 124.54 63.63 C 120.00 65.36 114.10 67.82 115.62 73.82 C 118.02 73.51 120.43 73.22 122.78 72.61 C 121.93 73.44 121.09 74.28 120.26 75.12 C 123.40 75.38 126.54 75.59 129.69 75.79 C 129.49 75.56 129.10 75.09 128.91 74.86 C 130.86 73.63 132.77 72.34 134.73 71.12 C 135.66 72.86 136.60 74.60 137.53 76.34 C 134.14 77.19 130.71 77.89 127.27 78.47 C 127.86 79.09 128.45 79.70 129.05 80.32 C 125.74 79.67 122.47 78.82 119.16 78.19 C 119.19 81.76 120.40 85.22 123.08 87.67 C 122.81 87.98 122.28 88.61 122.01 88.92 C 119.43 93.06 114.14 92.22 110.01 93.16 C 108.75 92.89 107.51 92.60 106.28 92.22 C 118.83 90.92 111.73 73.98 112.56 65.71 Z" />
</g>
<g id="#1b1b1bff">
<path fill="#1b1b1b" opacity="1.00" d=" M 115.62 73.82 C 114.10 67.82 120.00 65.36 124.54 63.63 C 132.93 63.22 139.54 68.51 144.68 74.51 C 143.34 75.24 142.01 75.97 140.71 76.77 C 139.88 77.30 139.05 77.83 138.22 78.34 C 135.39 79.81 132.21 80.39 129.05 80.32 C 128.45 79.70 127.86 79.09 127.27 78.47 C 130.71 77.89 134.14 77.19 137.53 76.34 C 136.60 74.60 135.66 72.86 134.73 71.12 C 132.77 72.34 130.86 73.63 128.91 74.86 C 128.20 74.01 127.50 73.17 126.81 72.32 C 127.69 71.48 128.58 70.64 129.45 69.79 C 127.11 70.42 124.84 71.31 122.78 72.61 C 120.43 73.22 118.02 73.51 115.62 73.82 Z" />
<path fill="#1b1b1b" opacity="1.00" d=" M 122.01 88.92 C 125.88 98.37 112.20 98.24 106.80 94.79 C 107.86 94.23 108.93 93.69 110.01 93.16 C 114.14 92.22 119.43 93.06 122.01 88.92 Z" />
</g>
<g id="#b6b6b6ff">
<path fill="#b6b6b6" opacity="1.00" d=" M 105.89 70.39 C 107.39 69.56 109.18 69.53 110.73 68.81 C 113.68 75.49 111.23 82.58 110.42 89.40 C 108.16 90.03 105.90 90.67 103.62 91.21 C 101.86 90.62 100.09 90.07 98.32 89.54 C 97.62 87.54 97.05 85.51 96.43 83.49 C 92.29 83.96 88.14 84.42 83.99 84.87 C 82.42 81.54 82.28 77.86 83.12 74.32 C 85.39 74.95 87.66 75.58 89.94 76.16 C 96.07 78.42 101.98 74.93 105.89 70.39 Z" />
<path fill="#b6b6b6" opacity="1.00" d=" M 122.78 72.61 C 124.84 71.31 127.11 70.42 129.45 69.79 C 128.58 70.64 127.69 71.48 126.81 72.32 C 127.50 73.17 128.20 74.01 128.91 74.86 C 129.10 75.09 129.49 75.56 129.69 75.79 C 126.54 75.59 123.40 75.38 120.26 75.12 C 121.09 74.28 121.93 73.44 122.78 72.61 Z" />
</g>
<g id="#989898ff">
<path fill="#989898" opacity="1.00" d=" M 81.70 69.79 C 84.51 71.83 87.19 74.04 89.94 76.16 C 87.66 75.58 85.39 74.95 83.12 74.32 C 82.28 77.86 82.42 81.54 83.99 84.87 C 88.14 84.42 92.29 83.96 96.43 83.49 C 97.05 85.51 97.62 87.54 98.32 89.54 C 100.33 94.43 106.03 96.00 109.99 98.94 C 102.55 98.94 95.20 97.47 88.25 94.87 C 90.18 92.30 92.07 89.69 93.90 87.05 C 93.73 86.56 93.41 85.57 93.25 85.08 C 92.19 85.72 91.14 86.37 90.08 87.00 C 87.13 88.19 84.07 89.03 81.02 89.92 C 77.90 83.48 79.47 76.23 81.70 69.79 Z" />
</g>
<g id="#b3b3b3ff">
<path fill="#b3b3b3" opacity="1.00" d=" M 119.16 78.19 C 122.47 78.82 125.74 79.67 129.05 80.32 C 132.21 80.39 135.39 79.81 138.22 78.34 C 142.22 85.12 136.98 93.66 129.10 93.23 C 127.04 91.44 125.01 89.60 123.08 87.67 C 120.40 85.22 119.19 81.76 119.16 78.19 Z" />
</g>
<g id="#a2a2a2ff">
<path fill="#a2a2a2" opacity="1.00" d=" M 87.79 98.32 C 90.43 98.61 92.81 99.82 95.13 101.01 C 102.37 98.10 110.18 103.20 117.88 101.60 C 117.91 102.46 117.94 103.32 117.98 104.18 C 116.83 104.15 115.69 104.11 114.55 104.14 C 110.50 105.33 106.70 107.23 102.96 109.16 C 106.00 110.47 109.29 110.74 112.56 110.51 C 114.63 113.54 117.85 115.11 121.51 115.13 C 114.10 123.86 102.29 118.77 92.79 121.77 C 89.52 114.49 84.32 106.50 87.79 98.32 Z" />
</g>
<g id="#070707ff">
<path fill="#070707" opacity="1.00" d=" M 119.33 100.30 C 122.99 99.96 126.65 99.59 130.32 99.53 C 128.09 102.13 124.86 103.23 121.57 103.78 C 120.82 102.62 120.08 101.46 119.33 100.30 Z" />
</g>
<g id="#727272ff">
<path fill="#727272" opacity="1.00" d=" M 114.54 108.01 C 122.89 108.69 128.51 101.05 136.66 100.34 C 130.20 117.74 110.65 128.16 92.79 121.77 C 102.29 118.77 114.10 123.86 121.51 115.13 C 117.85 115.11 114.63 113.54 112.56 110.51 C 109.29 110.74 106.00 110.47 102.96 109.16 C 106.70 107.23 110.50 105.33 114.55 104.14 C 114.54 105.43 114.54 106.72 114.54 108.01 Z" />
</g>
<g id="#676767ff">
<path fill="#676767" opacity="1.00" d=" M 146.54 116.67 C 147.42 115.02 148.17 113.32 148.92 111.62 C 151.48 118.15 153.90 124.74 156.02 131.42 C 154.53 130.40 153.09 129.30 151.64 128.23 C 146.98 128.38 142.70 125.73 138.00 126.58 C 141.05 123.47 144.36 120.48 146.54 116.67 Z" />
</g>
<g id="#1a1a1aff">
<path fill="#1a1a1a" opacity="1.00" d=" M 100.56 127.50 C 116.92 126.86 133.96 124.83 147.34 114.39 C 147.14 114.96 146.74 116.10 146.54 116.67 C 144.36 120.48 141.05 123.47 138.00 126.58 C 134.85 129.63 131.80 132.78 128.79 135.97 C 127.45 137.25 126.14 138.55 124.84 139.86 L 124.15 140.57 C 116.82 135.19 106.38 134.68 100.56 127.50 Z" />
</g>
<g id="#717171ff">
<path fill="#717171" opacity="1.00" d=" M 93.20 123.45 C 95.90 132.03 117.62 136.95 104.67 144.77 C 109.70 147.26 115.09 144.87 120.32 144.67 C 117.87 147.61 115.67 150.75 113.07 153.57 C 108.82 157.42 103.49 159.71 97.90 160.80 C 97.87 163.36 97.91 166.01 99.39 168.23 C 99.86 168.94 100.34 169.64 100.84 170.34 L 100.52 170.25 C 97.05 169.30 96.86 165.39 95.80 162.56 L 95.98 162.14 C 98.92 150.93 94.87 138.80 94.14 127.35 C 93.93 126.27 93.70 125.21 93.43 124.16 L 93.20 123.45 Z" />
</g>
<g id="#ccccccff">
<path fill="#cccccc" opacity="1.00" d=" M 71.65 151.48 C 78.60 142.12 85.55 132.77 93.43 124.16 C 93.70 125.21 93.93 126.27 94.14 127.35 C 93.71 128.84 93.24 130.33 92.80 131.83 C 91.65 135.40 90.79 139.06 90.21 142.76 C 88.84 146.46 86.63 149.78 83.83 152.55 C 79.82 151.76 75.74 151.38 71.65 151.48 Z" />
</g>
<g id="#838383ff">
<path fill="#838383" opacity="1.00" d=" M 138.00 126.58 C 142.70 125.73 146.98 128.38 151.64 128.23 C 153.09 129.30 154.53 130.40 156.02 131.42 C 171.26 139.95 186.56 148.61 200.00 159.89 L 200.00 167.25 C 186.97 156.42 173.93 144.68 157.14 140.16 C 156.12 141.01 155.17 141.93 154.29 142.92 C 150.33 139.39 147.81 134.59 143.98 130.99 C 138.53 129.26 133.50 133.81 128.79 135.97 C 131.80 132.78 134.85 129.63 138.00 126.58 Z" />
</g>
<g id="#242424ff">
<path fill="#242424" opacity="1.00" d=" M 94.14 127.35 C 94.87 138.80 98.92 150.93 95.98 162.14 C 93.25 152.29 94.39 141.88 92.80 131.83 C 93.24 130.33 93.71 128.84 94.14 127.35 Z" />
</g>
<g id="#a5a5a5ff">
<path fill="#a5a5a5" opacity="1.00" d=" M 128.79 135.97 C 133.50 133.81 138.53 129.26 143.98 130.99 C 147.81 134.59 150.33 139.39 154.29 142.92 C 149.14 153.73 138.81 162.82 138.30 175.30 C 139.56 174.15 140.81 172.98 141.99 171.75 C 141.98 172.40 141.95 173.70 141.93 174.36 C 141.11 175.86 140.15 177.28 139.20 178.71 C 128.08 166.26 109.28 173.15 101.46 185.49 C 98.01 190.44 94.75 195.57 90.63 200.00 L 88.31 200.00 C 92.18 190.01 97.91 180.64 100.52 170.25 L 100.84 170.34 L 101.74 170.55 C 102.58 170.73 103.42 170.93 104.26 171.14 C 104.49 172.75 104.73 174.37 104.98 175.99 C 113.08 171.93 121.47 164.89 131.14 168.59 C 130.48 167.46 129.84 166.33 129.17 165.21 C 128.88 164.77 128.31 163.88 128.02 163.43 C 134.93 157.01 140.76 135.03 124.84 139.86 C 126.14 138.55 127.45 137.25 128.79 135.97 Z" />
</g>
<g id="#9a9a9aff">
<path fill="#9a9a9a" opacity="1.00" d=" M 90.21 142.76 C 90.79 139.06 91.65 135.40 92.80 131.83 C 94.39 141.88 93.25 152.29 95.98 162.14 L 95.80 162.56 C 94.38 166.15 92.64 169.60 90.48 172.80 C 86.85 162.55 88.51 153.19 90.21 142.76 Z" />
<path fill="#9a9a9a" opacity="1.00" d=" M 97.90 160.80 C 103.49 159.71 108.82 157.42 113.07 153.57 C 113.49 153.59 114.31 153.65 114.73 153.67 C 110.22 159.31 102.10 160.92 99.39 168.23 C 97.91 166.01 97.87 163.36 97.90 160.80 Z" />
</g>
<g id="#c1c1c1ff">
<path fill="#c1c1c1" opacity="1.00" d=" M 124.84 139.86 C 140.76 135.03 134.93 157.01 128.02 163.43 C 124.55 159.17 120.61 154.26 114.73 153.67 C 114.31 153.65 113.49 153.59 113.07 153.57 C 115.67 150.75 117.87 147.61 120.32 144.67 C 121.55 143.26 122.85 141.91 124.15 140.57 L 124.84 139.86 Z" />
</g>
<g id="#3f3f3fff">
<path fill="#3f3f3f" opacity="1.00" d=" M 154.29 142.92 C 155.17 141.93 156.12 141.01 157.14 140.16 C 155.98 142.63 154.81 145.10 153.68 147.59 C 150.15 155.82 144.80 163.19 141.99 171.75 C 140.81 172.98 139.56 174.15 138.30 175.30 C 138.81 162.82 149.14 153.73 154.29 142.92 Z" />
</g>
<g id="#9e9e9eff">
<path fill="#9e9e9e" opacity="1.00" d=" M 157.14 140.16 C 173.93 144.68 186.97 156.42 200.00 167.25 L 200.00 200.00 L 182.70 200.00 C 185.46 192.81 189.97 186.40 192.03 178.94 C 185.02 185.27 182.70 196.26 173.46 200.00 L 160.49 200.00 C 170.20 190.15 180.93 181.22 191.62 172.72 C 186.37 158.56 169.22 143.52 153.68 147.59 C 154.81 145.10 155.98 142.63 157.14 140.16 Z" />
</g>
<g id="#b9b9b9ff">
<path fill="#b9b9b9" opacity="1.00" d=" M 83.83 152.55 C 86.63 149.78 88.84 146.46 90.21 142.76 C 88.51 153.19 86.85 162.55 90.48 172.80 C 92.64 169.60 94.38 166.15 95.80 162.56 C 96.86 165.39 97.05 169.30 100.52 170.25 C 97.91 180.64 92.18 190.01 88.31 200.00 L 55.47 200.00 C 49.05 190.90 54.85 180.82 59.20 172.35 C 57.31 173.11 55.42 173.87 53.51 174.60 C 55.70 170.92 58.49 167.65 61.73 164.86 C 59.85 164.06 57.99 163.22 56.18 162.28 C 60.51 159.53 65.22 157.39 69.31 154.28 C 70.03 159.11 71.03 163.92 72.83 168.49 C 73.99 167.11 75.16 165.73 76.25 164.30 C 75.91 167.35 75.73 170.42 75.45 173.48 C 78.79 169.75 82.93 166.81 87.77 165.40 C 87.05 164.40 86.34 163.40 85.62 162.41 C 85.16 161.76 84.23 160.47 83.77 159.82 C 84.19 157.90 84.60 155.98 85.07 154.08 C 85.20 153.92 85.47 153.59 85.60 153.43 C 85.03 153.36 83.88 153.21 83.30 153.14 L 83.83 152.55 Z" />
</g>
<g id="#b8b8b8ff">
<path fill="#b8b8b8" opacity="1.00" d=" M 153.68 147.59 C 169.22 143.52 186.37 158.56 191.62 172.72 C 180.93 181.22 170.20 190.15 160.49 200.00 L 139.15 200.00 C 155.29 192.15 170.91 180.03 175.92 162.00 C 175.52 157.60 169.15 154.25 165.69 157.66 C 159.67 163.78 152.38 168.47 146.72 174.97 C 148.78 166.38 164.93 160.37 156.89 151.31 C 149.12 156.85 146.34 166.37 141.93 174.36 C 141.95 173.70 141.98 172.40 141.99 171.75 C 144.80 163.19 150.15 155.82 153.68 147.59 Z" />
</g>
<g id="#464646ff">
<path fill="#464646" opacity="1.00" d=" M 69.31 154.28 C 70.13 153.37 70.89 152.43 71.65 151.48 C 75.74 151.38 79.82 151.76 83.83 152.55 L 83.30 153.14 C 80.32 156.42 78.24 160.37 76.25 164.30 C 75.16 165.73 73.99 167.11 72.83 168.49 C 71.03 163.92 70.03 159.11 69.31 154.28 Z" />
</g>
<g id="#c3c3c3ff">
<path fill="#c3c3c3" opacity="1.00" d=" M 141.93 174.36 C 146.34 166.37 149.12 156.85 156.89 151.31 C 164.93 160.37 148.78 166.38 146.72 174.97 C 152.38 168.47 159.67 163.78 165.69 157.66 C 169.15 154.25 175.52 157.60 175.92 162.00 C 170.91 180.03 155.29 192.15 139.15 200.00 L 90.63 200.00 C 94.75 195.57 98.01 190.44 101.46 185.49 C 109.28 173.15 128.08 166.26 139.20 178.71 C 140.15 177.28 141.11 175.86 141.93 174.36 Z" />
</g>
<g id="#969696ff">
<path fill="#969696" opacity="1.00" d=" M 83.30 153.14 C 83.88 153.21 85.03 153.36 85.60 153.43 C 85.47 153.59 85.20 153.92 85.07 154.08 C 81.50 157.62 79.24 162.15 77.86 166.94 C 80.50 165.52 83.09 164.01 85.62 162.41 C 86.34 163.40 87.05 164.40 87.77 165.40 C 82.93 166.81 78.79 169.75 75.45 173.48 C 75.73 170.42 75.91 167.35 76.25 164.30 C 78.24 160.37 80.32 156.42 83.30 153.14 Z" />
</g>
<g id="#414141ff">
<path fill="#414141" opacity="1.00" d=" M 77.86 166.94 C 79.24 162.15 81.50 157.62 85.07 154.08 C 84.60 155.98 84.19 157.90 83.77 159.82 C 84.23 160.47 85.16 161.76 85.62 162.41 C 83.09 164.01 80.50 165.52 77.86 166.94 Z" />
</g>
<g id="#575757ff">
<path fill="#575757" opacity="1.00" d=" M 114.73 153.67 C 120.61 154.26 124.55 159.17 128.02 163.43 C 128.31 163.88 128.88 164.77 129.17 165.21 C 119.59 163.83 110.38 166.70 101.74 170.55 L 100.84 170.34 C 100.34 169.64 99.86 168.94 99.39 168.23 C 102.10 160.92 110.22 159.31 114.73 153.67 Z" />
</g>
<g id="#a0a0a0ff">
<path fill="#a0a0a0" opacity="1.00" d=" M 29.60 200.00 C 34.64 185.24 41.57 169.80 56.18 162.28 C 57.99 163.22 59.85 164.06 61.73 164.86 C 58.49 167.65 55.70 170.92 53.51 174.60 C 55.42 173.87 57.31 173.11 59.20 172.35 C 54.85 180.82 49.05 190.90 55.47 200.00 L 29.60 200.00 Z" />
</g>
<g id="#7c7c7cff">
<path fill="#7c7c7c" opacity="1.00" d=" M 101.74 170.55 C 110.38 166.70 119.59 163.83 129.17 165.21 C 129.84 166.33 130.48 167.46 131.14 168.59 C 121.47 164.89 113.08 171.93 104.98 175.99 C 104.73 174.37 104.49 172.75 104.26 171.14 C 103.42 170.93 102.58 170.73 101.74 170.55 Z" />
</g>
<g id="#6f6f6fff">
<path fill="#6f6f6f" opacity="1.00" d=" M 173.46 200.00 C 182.70 196.26 185.02 185.27 192.03 178.94 C 189.97 186.40 185.46 192.81 182.70 200.00 L 173.46 200.00 Z" />
</g>
</svg>
