<?xml version="1.0" encoding="UTF-8" ?>
<!DOCTYPE svg PUBLIC "-//W3C//DTD SVG 1.1//EN" "http://www.w3.org/Graphics/SVG/1.1/DTD/svg11.dtd">
<svg width="165pt" height="175pt" viewBox="0 0 165 175" version="1.1" xmlns="http://www.w3.org/2000/svg">
<g id="#68686868">
<path fill="#686868" opacity="0.41" d=" M 28.77 0.00 L 35.09 0.00 C 45.47 1.84 54.22 9.12 57.93 18.97 C 58.19 23.93 58.24 28.91 57.86 33.87 C 53.25 27.84 57.44 13.97 47.02 14.10 C 37.54 12.73 39.81 24.53 37.91 30.33 C 33.07 26.68 35.26 18.92 31.77 14.03 C 28.19 13.84 24.59 14.09 21.13 15.04 C 18.38 22.58 17.17 30.57 14.22 38.05 C 16.23 37.78 18.23 37.53 20.24 37.29 C 24.29 32.17 23.10 25.25 26.43 19.89 C 30.06 25.63 29.12 36.83 38.01 37.14 C 46.62 36.98 42.57 23.89 47.99 21.24 C 50.61 26.05 49.29 32.40 53.47 36.50 C 52.22 42.27 52.97 48.18 52.63 54.02 C 52.50 50.97 52.42 47.93 52.33 44.88 C 40.48 58.28 16.41 55.98 8.41 39.63 C -0.88 23.70 10.91 2.38 28.77 0.00 Z" />
<path fill="#686868" opacity="0.41" d=" M 20.03 72.06 C 34.39 64.31 53.29 73.07 57.98 88.38 C 58.24 93.69 58.11 99.01 57.98 104.32 C 53.16 97.81 57.77 82.06 45.96 83.12 C 36.77 82.78 40.83 94.64 37.06 99.83 C 34.05 94.66 34.48 88.36 31.82 83.02 C 28.29 82.81 24.74 83.00 21.37 84.16 C 18.08 91.51 17.78 99.78 14.29 107.04 C 16.27 106.77 18.25 106.52 20.23 106.28 C 23.91 101.04 23.18 94.25 26.43 88.88 C 30.01 94.57 29.17 105.73 38.01 105.95 C 46.45 105.68 42.73 93.01 47.97 90.21 C 50.39 95.13 49.63 101.25 53.64 105.49 C 52.00 111.20 53.02 117.17 52.63 123.01 C 52.51 119.94 52.44 116.87 52.35 113.81 C 41.89 125.49 21.61 125.83 11.65 113.36 C 0.32 101.01 4.82 79.03 20.03 72.06 Z" />
</g>
<g id="#d2d2d2ff">
<path fill="#d2d2d2" opacity="1.00" d=" M 82.09 6.18 C 83.98 5.79 85.87 5.39 87.76 4.99 C 87.67 12.04 87.82 19.09 87.65 26.14 C 90.31 22.66 96.81 13.80 100.29 20.17 C 97.11 20.10 94.69 22.12 92.53 24.18 C 94.99 28.66 97.05 34.17 102.37 35.91 C 96.08 42.27 91.14 33.14 88.06 28.50 C 87.68 31.65 87.69 34.83 87.73 37.99 C 85.86 37.99 84.00 38.00 82.13 38.00 C 82.11 27.40 82.18 16.79 82.09 6.18 Z" />
<path fill="#d2d2d2" opacity="1.00" d=" M 135.61 9.71 C 138.03 8.63 140.48 7.62 142.97 6.73 C 143.02 11.47 143.00 16.20 142.99 20.94 C 153.06 9.47 156.55 27.27 154.46 35.32 C 155.64 35.86 156.83 36.41 158.01 36.97 C 154.33 37.04 150.64 37.08 146.96 36.91 C 148.20 36.40 149.45 35.91 150.72 35.46 C 150.18 30.48 152.74 23.89 148.94 20.00 C 140.29 19.40 143.47 30.03 143.09 35.38 C 144.35 35.85 145.60 36.36 146.84 36.91 C 143.10 37.08 139.35 37.06 135.61 36.95 C 136.49 36.60 138.26 35.91 139.14 35.57 C 139.86 27.13 139.69 18.58 139.22 10.13 C 138.32 10.02 136.51 9.82 135.61 9.71 Z" />
<path fill="#d2d2d2" opacity="1.00" d=" M 101.57 27.01 C 99.89 16.02 118.07 13.05 118.13 24.93 C 113.54 25.05 108.95 24.96 104.36 25.05 C 103.55 33.54 114.87 37.44 118.23 29.02 C 117.51 40.56 99.90 38.23 101.57 27.01 M 104.23 23.91 C 107.41 24.03 110.59 24.03 113.77 23.93 C 113.61 17.40 104.96 17.94 104.23 23.91 Z" />
<path fill="#d2d2d2" opacity="1.00" d=" M 58.28 18.02 C 60.05 17.97 61.83 17.98 63.60 17.98 C 64.36 23.66 60.19 39.19 70.44 33.54 C 70.37 28.36 70.41 23.19 70.40 18.01 C 72.26 18.00 74.13 18.00 75.99 17.99 C 76.00 24.66 76.01 31.33 75.99 37.99 C 74.47 38.00 72.94 38.01 71.42 38.03 C 71.13 37.52 70.56 36.49 70.27 35.98 C 66.83 37.39 62.64 39.26 59.30 36.55 C 58.79 35.67 58.31 34.78 57.86 33.87 C 58.24 28.91 58.19 23.93 57.93 18.97 L 58.28 18.02 Z" />
<path fill="#d2d2d2" opacity="1.00" d=" M 93.24 73.99 C 95.12 74.39 97.01 74.79 98.91 75.18 C 98.82 85.79 98.89 96.39 98.87 107.00 C 97.00 107.00 95.13 106.99 93.27 106.99 C 93.31 103.79 93.32 100.58 92.92 97.40 C 89.95 102.15 84.92 111.26 78.63 104.91 C 83.95 103.17 86.01 97.66 88.47 93.18 C 86.31 91.12 83.89 89.09 80.71 89.17 C 84.19 82.80 90.69 91.66 93.35 95.14 C 93.18 88.09 93.33 81.04 93.24 73.99 Z" />
<path fill="#d2d2d2" opacity="1.00" d=" M 135.61 78.71 C 138.03 77.63 140.48 76.62 142.97 75.73 C 143.02 80.47 143.00 85.20 142.99 89.94 C 153.06 78.47 156.54 96.28 154.46 104.33 C 155.65 104.86 156.84 105.41 158.03 105.97 C 154.34 106.04 150.64 106.08 146.96 105.91 C 148.20 105.40 149.45 104.91 150.72 104.46 C 150.18 99.48 152.76 92.86 148.92 89.00 C 140.29 88.42 143.47 99.03 143.09 104.38 C 144.35 104.85 145.60 105.36 146.84 105.91 C 143.09 106.08 139.34 106.05 135.60 105.95 C 136.49 105.60 138.26 104.91 139.14 104.56 C 139.85 96.12 139.70 87.58 139.22 79.13 C 138.31 79.02 136.51 78.82 135.61 78.71 Z" />
<path fill="#d2d2d2" opacity="1.00" d=" M 101.57 96.01 C 99.89 85.02 118.07 82.05 118.13 93.93 C 113.54 94.05 108.95 93.96 104.36 94.06 C 103.55 102.54 114.87 106.44 118.23 98.01 C 117.51 109.56 99.90 107.23 101.57 96.01 M 104.23 92.91 C 107.41 93.03 110.59 93.03 113.77 92.93 C 113.61 86.40 104.96 86.94 104.23 92.91 Z" />
<path fill="#d2d2d2" opacity="1.00" d=" M 57.92 87.02 C 59.82 87.01 61.71 87.01 63.60 87.00 C 63.59 92.15 63.63 97.30 63.57 102.45 C 73.79 108.33 69.86 92.60 70.54 87.00 C 72.36 87.00 74.18 87.00 76.00 87.00 C 77.22 95.70 77.10 113.10 63.83 104.96 C 63.24 106.68 61.79 107.18 60.12 107.22 C 59.40 106.25 58.67 105.30 57.98 104.32 C 58.11 99.01 58.24 93.69 57.98 88.38 L 57.92 87.02 Z" />
</g>
<g id="#feb00bff">
<path fill="#feb00b" opacity="1.00" d=" M 21.13 15.04 C 24.59 14.09 28.19 13.84 31.77 14.03 C 35.26 18.92 33.07 26.68 37.91 30.33 C 39.81 24.53 37.54 12.73 47.02 14.10 C 57.44 13.97 53.25 27.84 57.86 33.87 C 58.31 34.78 58.79 35.67 59.30 36.55 L 60.03 37.85 C 58.91 37.75 56.68 37.54 55.57 37.44 C 55.05 37.21 54.00 36.74 53.47 36.50 C 49.29 32.40 50.61 26.05 47.99 21.24 C 42.57 23.89 46.62 36.98 38.01 37.14 C 29.12 36.83 30.06 25.63 26.43 19.89 C 23.10 25.25 24.29 32.17 20.24 37.29 C 18.23 37.53 16.23 37.78 14.22 38.05 C 17.17 30.57 18.38 22.58 21.13 15.04 Z" />
<path fill="#feb00b" opacity="1.00" d=" M 115.80 40.07 C 121.71 37.53 134.19 42.86 124.43 47.97 C 126.61 51.02 128.43 54.74 132.21 56.07 C 130.58 56.00 128.94 55.95 127.31 55.92 C 124.94 53.18 123.72 49.18 120.28 47.58 C 120.19 49.95 120.19 52.32 120.16 54.68 C 120.75 55.00 121.91 55.64 122.49 55.96 C 120.25 55.95 118.01 55.95 115.78 55.95 C 116.26 55.61 117.22 54.93 117.70 54.59 C 117.66 50.20 117.66 45.81 117.70 41.42 C 117.23 41.08 116.27 40.41 115.80 40.07 M 120.21 40.75 C 120.19 42.90 120.19 45.05 120.21 47.20 C 123.26 47.29 126.40 45.40 125.37 41.93 C 123.67 41.46 121.95 41.06 120.21 40.75 Z" />
<path fill="#feb00b" opacity="1.00" d=" M 135.47 44.52 C 142.93 40.97 146.16 54.19 138.82 55.93 C 132.25 57.44 129.87 47.17 135.47 44.52 M 136.29 45.15 C 133.10 47.59 134.33 55.43 138.94 54.99 C 142.35 52.75 141.05 44.14 136.29 45.15 Z" />
<path fill="#feb00b" opacity="1.00" d=" M 144.31 44.96 C 145.74 44.98 147.17 44.99 148.61 45.01 C 148.47 45.46 148.20 46.36 148.06 46.81 C 149.52 54.20 153.79 51.02 153.67 45.00 C 154.21 44.99 155.30 44.98 155.84 44.97 C 152.37 49.08 150.90 64.71 144.42 58.92 C 145.40 59.06 147.37 59.34 148.35 59.49 C 151.91 54.52 146.74 49.25 144.31 44.96 Z" />
<path fill="#feb00b" opacity="1.00" d=" M 115.83 109.07 C 121.75 106.52 134.18 111.88 124.43 116.97 C 126.61 120.02 128.43 123.75 132.21 125.07 C 130.58 125.00 128.94 124.95 127.30 124.92 C 124.94 122.18 123.72 118.18 120.28 116.58 C 120.19 118.95 120.19 121.32 120.16 123.68 C 120.75 124.00 121.91 124.64 122.49 124.96 C 120.25 124.95 118.01 124.95 115.77 124.95 C 116.25 124.61 117.22 123.93 117.70 123.59 C 117.66 119.20 117.66 114.82 117.70 110.43 C 117.23 110.09 116.30 109.41 115.83 109.07 M 120.21 109.75 C 120.19 111.90 120.19 114.05 120.21 116.20 C 123.26 116.29 126.40 114.40 125.37 110.93 C 123.67 110.46 121.95 110.06 120.21 109.75 Z" />
<path fill="#feb00b" opacity="1.00" d=" M 135.47 113.51 C 142.93 109.98 146.15 123.19 138.82 124.93 C 132.24 126.45 129.87 116.16 135.47 113.51 M 136.27 114.16 C 133.12 116.61 134.34 124.42 138.93 123.99 C 142.37 121.76 141.04 113.11 136.27 114.16 Z" />
<path fill="#feb00b" opacity="1.00" d=" M 144.31 113.96 C 145.74 113.98 147.17 113.99 148.61 114.01 C 148.47 114.46 148.20 115.36 148.06 115.81 C 149.52 123.20 153.79 120.02 153.67 114.00 C 154.21 113.99 155.30 113.98 155.84 113.97 C 152.37 118.08 150.91 133.70 144.42 127.92 C 145.40 128.06 147.37 128.34 148.35 128.49 C 151.91 123.52 146.74 118.25 144.31 113.96 Z" />
</g>
<g id="#d1d1d1fe">
<path fill="#d1d1d1" opacity="1.00" d=" M 121.25 21.22 C 122.61 15.58 128.76 17.62 132.90 17.40 C 132.77 19.67 132.74 21.94 132.70 24.22 C 131.92 20.36 127.82 15.53 123.93 19.22 C 122.33 26.11 135.59 24.51 134.18 31.99 C 133.00 38.21 125.65 36.99 121.01 36.66 C 121.11 34.25 121.10 31.83 121.11 29.42 C 122.23 33.24 126.78 38.77 130.66 34.59 C 132.93 27.42 118.81 28.97 121.25 21.22 Z" />
<path fill="#d1d1d1" opacity="1.00" d=" M 121.25 90.22 C 122.61 84.58 128.76 86.62 132.90 86.40 C 132.77 88.67 132.74 90.94 132.70 93.22 C 131.92 89.36 127.83 84.53 123.93 88.22 C 122.33 95.11 135.59 93.51 134.18 100.99 C 133.01 107.21 125.65 105.99 121.01 105.66 C 121.11 103.25 121.10 100.83 121.11 98.42 C 122.23 102.23 126.77 107.77 130.65 103.60 C 132.95 96.42 118.81 97.97 121.25 90.22 Z" />
</g>
<g id="#b4b4b4ff">
<path fill="#b4b4b4" opacity="1.00" d=" M 53.47 36.50 C 54.00 36.74 55.05 37.21 55.57 37.44 C 55.61 40.91 55.37 44.38 55.29 47.85 C 56.57 46.56 57.84 45.27 59.12 43.98 C 59.95 43.99 61.61 44.00 62.44 44.01 C 60.83 44.99 59.21 45.96 57.61 46.96 C 65.16 52.40 59.90 57.50 55.63 48.96 C 55.51 50.64 55.39 52.32 55.27 54.00 C 54.61 54.00 53.29 54.01 52.63 54.02 C 52.97 48.18 52.22 42.27 53.47 36.50 Z" />
<path fill="#b4b4b4" opacity="1.00" d=" M 70.75 43.99 C 71.46 44.00 72.89 44.01 73.60 44.01 C 73.60 47.34 73.60 50.67 73.59 54.01 C 72.93 54.00 71.59 53.99 70.92 53.99 C 70.73 50.66 70.68 47.32 70.75 43.99 Z" />
<path fill="#b4b4b4" opacity="1.00" d=" M 76.65 43.72 C 77.80 44.08 78.94 44.45 80.09 44.83 C 81.04 44.52 82.00 44.21 82.95 43.91 C 83.86 44.26 84.76 44.60 85.67 44.95 C 92.29 41.13 91.89 49.71 91.45 54.00 C 90.74 54.00 89.33 54.00 88.63 54.00 C 88.61 51.29 88.58 48.59 88.50 45.89 C 87.50 46.08 86.50 46.27 85.50 46.46 C 85.47 48.97 85.45 51.49 85.44 54.00 C 84.74 54.00 83.33 54.00 82.63 54.00 C 82.61 51.33 82.59 48.65 82.49 45.98 C 81.47 46.12 80.46 46.25 79.45 46.39 C 79.40 48.93 79.39 51.46 79.38 54.00 C 78.69 54.00 77.30 54.00 76.61 54.00 C 76.59 50.57 76.58 47.15 76.65 43.72 Z" />
<path fill="#b4b4b4" opacity="1.00" d=" M 94.26 46.18 C 101.75 39.44 101.32 49.14 104.20 53.07 C 102.60 53.75 100.88 53.99 99.19 53.45 C 93.61 56.75 91.55 47.65 97.78 47.64 C 96.79 49.42 95.96 52.70 99.19 52.23 C 99.20 50.14 99.19 48.05 99.18 45.97 C 97.54 46.06 95.90 46.13 94.26 46.18 Z" />
<path fill="#b4b4b4" opacity="1.00" d=" M 105.61 44.00 C 107.72 44.67 110.68 43.28 112.17 45.34 C 110.93 45.73 109.69 46.12 108.44 46.49 C 108.41 48.99 108.39 51.50 108.38 54.00 C 107.69 54.00 106.30 54.00 105.61 54.00 C 105.59 50.67 105.60 47.33 105.61 44.00 Z" />
<path fill="#b4b4b4" opacity="1.00" d=" M 53.64 105.49 L 54.95 105.92 C 56.52 109.03 54.91 113.30 55.31 116.89 C 56.56 115.58 57.82 114.28 59.08 112.99 C 59.92 112.99 61.62 112.99 62.46 112.99 C 60.88 113.97 59.29 114.93 57.72 115.92 C 59.09 118.32 60.85 120.46 63.10 122.09 C 59.55 124.68 57.03 120.86 55.70 117.91 C 55.54 119.61 55.41 121.30 55.27 123.00 C 54.61 123.00 53.29 123.00 52.63 123.01 C 53.02 117.17 52.00 111.20 53.64 105.49 Z" />
<path fill="#b4b4b4" opacity="1.00" d=" M 70.75 112.99 C 71.46 113.00 72.89 113.01 73.60 113.01 C 73.60 116.34 73.60 119.67 73.60 123.01 C 72.93 123.00 71.59 122.99 70.92 122.99 C 70.73 119.66 70.68 116.32 70.75 112.99 Z" />
<path fill="#b4b4b4" opacity="1.00" d=" M 76.65 112.72 C 77.80 113.08 78.94 113.45 80.09 113.83 C 81.04 113.52 82.00 113.21 82.95 112.91 C 83.86 113.26 84.77 113.60 85.68 113.95 C 92.30 110.14 91.88 118.72 91.45 123.00 C 90.74 123.00 89.33 123.00 88.63 123.00 C 88.61 120.29 88.58 117.59 88.50 114.89 C 87.50 115.08 86.50 115.27 85.50 115.46 C 85.47 117.97 85.45 120.49 85.44 123.00 C 84.74 123.00 83.33 123.00 82.63 123.00 C 82.61 120.32 82.58 117.65 82.48 114.98 C 81.47 115.11 80.46 115.25 79.45 115.39 C 79.40 117.93 79.39 120.46 79.38 123.00 C 78.69 123.00 77.30 123.00 76.61 123.00 C 76.59 119.57 76.58 116.15 76.65 112.72 Z" />
<path fill="#b4b4b4" opacity="1.00" d=" M 94.25 115.18 C 101.75 108.44 101.33 118.15 104.21 122.07 C 102.60 122.73 100.88 123.00 99.19 122.45 C 93.61 125.76 91.55 116.64 97.78 116.64 C 96.79 118.42 95.96 121.70 99.19 121.23 C 99.20 119.14 99.19 117.05 99.18 114.97 C 97.54 115.06 95.90 115.13 94.25 115.18 Z" />
<path fill="#b4b4b4" opacity="1.00" d=" M 105.61 113.00 C 107.72 113.67 110.67 112.30 112.18 114.34 C 110.94 114.73 109.70 115.11 108.45 115.48 C 108.41 117.99 108.39 120.49 108.38 123.00 C 107.69 123.00 106.30 123.00 105.61 123.00 C 105.59 119.66 105.60 116.33 105.61 113.00 Z" />
</g>
<g id="#b2b2b2fc">
<path fill="#b2b2b2" opacity="1.00" d=" M 64.55 44.00 C 65.26 44.00 66.67 44.00 67.38 44.00 C 67.39 46.47 67.41 48.95 67.44 51.42 C 68.59 51.88 69.72 52.36 70.83 52.91 C 63.97 57.26 63.97 48.47 64.55 44.00 Z" />
<path fill="#b2b2b2" opacity="1.00" d=" M 64.55 113.00 C 65.26 113.00 66.67 113.00 67.38 113.00 C 67.39 115.47 67.41 117.95 67.44 120.42 C 68.59 120.88 69.72 121.36 70.83 121.91 C 63.96 126.26 63.97 117.47 64.55 113.00 Z" />
</g>
<g id="#fdc517ff">
<path fill="#fdc517" opacity="1.00" d=" M 21.37 84.16 C 24.74 83.00 28.29 82.81 31.82 83.02 C 34.48 88.36 34.05 94.66 37.06 99.83 C 40.83 94.64 36.77 82.78 45.96 83.12 C 57.77 82.06 53.16 97.81 57.98 104.32 C 58.67 105.30 59.40 106.25 60.12 107.22 C 58.39 106.80 56.66 106.42 54.95 105.92 L 53.64 105.49 C 49.63 101.25 50.39 95.13 47.97 90.21 C 42.73 93.01 46.45 105.68 38.01 105.95 C 29.17 105.73 30.01 94.57 26.43 88.88 C 23.18 94.25 23.91 101.04 20.23 106.28 C 18.25 106.52 16.27 106.77 14.29 107.04 C 17.78 99.78 18.08 91.51 21.37 84.16 Z" />
</g>
<g id="#ffffffff">
<path fill="#ffffff" opacity="1.00" d=" M 5.10 138.10 C 32.95 138.33 60.82 137.87 88.67 138.26 L 87.76 138.49 L 86.67 138.75 C 71.80 139.09 56.92 138.59 42.05 138.96 C 41.91 148.54 42.04 158.12 42.00 167.70 C 29.86 168.38 17.36 166.35 5.45 168.72 L 4.99 168.88 C 5.32 158.62 5.12 148.36 5.10 138.10 M 8.26 144.95 C 9.90 150.50 11.41 156.10 13.33 161.56 C 14.33 158.41 15.30 155.26 16.41 152.15 C 17.38 155.31 18.31 158.48 19.45 161.58 C 21.06 156.80 22.16 151.85 24.03 147.15 C 24.69 147.20 26.02 147.30 26.68 147.35 C 25.71 149.06 24.75 150.77 23.78 152.48 C 24.61 152.71 26.28 153.17 27.11 153.40 C 27.76 155.38 27.75 157.41 26.28 159.04 C 24.87 158.25 23.46 157.47 21.99 156.79 C 21.94 162.11 29.29 162.43 30.34 157.44 C 30.60 157.89 31.14 158.78 31.41 159.23 C 33.77 162.74 38.58 160.57 39.12 156.86 C 37.09 157.82 35.21 159.47 32.81 159.22 C 30.66 156.59 29.69 153.24 27.63 150.55 C 28.56 148.72 29.49 146.90 30.38 145.06 C 27.59 145.00 24.81 144.99 22.02 145.00 C 21.12 148.02 20.23 151.04 19.33 154.06 C 18.37 151.10 17.48 148.12 16.63 145.12 C 16.06 145.07 14.92 144.96 14.35 144.90 C 15.37 148.00 14.50 151.15 13.51 154.14 C 12.46 151.15 11.57 148.11 10.71 145.06 C 10.10 145.03 8.87 144.98 8.26 144.95 M 31.05 154.65 C 31.70 152.10 32.20 149.43 33.95 147.35 C 35.23 147.98 36.51 148.63 37.78 149.28 C 38.10 148.32 38.42 147.36 38.75 146.40 C 36.97 146.26 35.27 145.71 33.64 145.00 C 30.51 147.25 30.83 151.24 31.05 154.65 Z" />
</g>
<g id="#000000fb">
<path fill="#000000" opacity="1.00" d=" M 104.69 138.37 C 109.97 137.98 115.26 138.04 120.54 138.28 C 121.55 139.71 122.72 141.02 123.95 142.28 C 120.71 142.47 117.46 142.39 114.22 142.34 C 113.99 141.08 113.75 139.81 113.51 138.56 C 112.89 140.06 112.30 141.57 111.71 143.08 C 110.91 141.77 110.97 139.61 109.33 139.02 C 109.17 140.27 108.99 141.52 108.77 142.76 C 108.12 142.19 107.49 141.62 106.85 141.05 C 106.19 141.66 105.53 142.28 104.88 142.90 C 104.81 141.39 104.75 139.88 104.69 138.37 Z" />
<path fill="#000000" opacity="1.00" d=" M 31.05 154.65 C 30.83 151.24 30.51 147.25 33.64 145.00 C 35.27 145.71 36.97 146.26 38.75 146.40 C 38.42 147.36 38.10 148.32 37.78 149.28 C 36.51 148.63 35.23 147.98 33.95 147.35 C 32.20 149.43 31.70 152.10 31.05 154.65 Z" />
<path fill="#000000" opacity="1.00" d=" M 44.28 152.90 C 44.30 148.04 51.92 147.99 53.21 152.24 C 51.42 151.78 49.65 151.24 47.90 150.68 C 47.43 151.31 46.50 152.55 46.04 153.17 C 47.84 156.26 50.77 153.80 53.34 153.41 C 52.02 157.80 44.39 157.94 44.28 152.90 Z" />
<path fill="#000000" opacity="1.00" d=" M 32.81 159.22 C 35.21 159.47 37.09 157.82 39.12 156.86 C 38.58 160.57 33.77 162.74 31.41 159.23 L 32.81 159.22 Z" />
</g>
<g id="#ffcc66ff">
<path fill="#ffcc66" opacity="1.00" d=" M 42.05 138.96 C 56.92 138.59 71.80 139.09 86.67 138.75 C 86.60 142.86 86.63 146.99 86.89 151.10 C 84.34 153.52 81.94 156.10 79.45 158.59 C 77.91 157.44 76.37 156.30 74.83 155.16 C 73.74 156.23 72.64 157.29 71.55 158.37 C 74.03 161.00 76.65 163.51 79.40 165.87 C 81.92 163.56 84.45 161.25 86.82 158.77 C 86.64 161.67 86.67 164.58 86.67 167.49 C 71.79 167.96 56.89 167.56 42.00 167.70 C 42.04 158.12 41.91 148.54 42.05 138.96 M 44.28 152.90 C 44.39 157.94 52.02 157.80 53.34 153.41 C 50.77 153.80 47.84 156.26 46.04 153.17 C 46.50 152.55 47.43 151.31 47.90 150.68 C 49.65 151.24 51.42 151.78 53.21 152.24 C 51.92 147.99 44.30 148.04 44.28 152.90 M 54.87 150.01 C 51.88 155.26 58.05 159.50 62.12 155.12 C 62.51 150.96 58.91 146.61 54.87 150.01 M 63.73 156.11 C 66.26 157.12 69.04 157.13 71.21 155.29 C 70.85 153.46 70.52 151.63 70.25 149.78 C 65.22 146.90 62.27 151.56 63.73 156.11 Z" />
</g>
<g id="#4a4a4aff">
<path fill="#4a4a4a" opacity="1.00" d=" M 86.67 138.75 L 87.76 138.49 C 88.01 142.42 88.32 146.40 87.75 150.32 L 86.89 151.10 C 86.63 146.99 86.60 142.86 86.67 138.75 Z" />
</g>
<g id="#e44d26ff">
<path fill="#e44d26" opacity="1.00" d=" M 102.51 144.34 C 110.17 144.21 117.84 144.17 125.51 144.36 C 124.72 152.08 124.09 159.82 123.40 167.56 C 117.24 170.23 110.76 170.23 104.60 167.56 C 103.87 159.82 103.28 152.07 102.51 144.34 M 106.76 149.13 C 107.05 151.97 107.32 154.81 107.57 157.66 C 110.80 157.67 114.04 157.75 117.28 157.85 C 117.20 158.71 117.05 160.44 116.98 161.30 C 115.21 161.56 113.43 161.73 111.64 161.78 C 111.34 161.12 110.74 159.79 110.45 159.13 C 109.75 159.11 108.36 159.06 107.66 159.04 C 107.83 160.57 108.00 162.10 108.18 163.63 C 112.00 165.14 116.07 165.26 119.90 163.73 C 120.27 160.74 120.56 157.75 120.79 154.74 C 117.26 154.69 113.74 154.70 110.21 154.77 C 110.21 154.07 110.21 152.66 110.21 151.96 C 113.79 152.03 117.36 152.04 120.94 152.07 C 121.04 151.28 121.24 149.71 121.34 148.93 C 116.48 148.90 111.62 149.06 106.76 149.13 Z" />
</g>
<g id="#0d489dff">
<path fill="#0d489d" opacity="1.00" d=" M 8.26 144.95 C 8.87 144.98 10.10 145.03 10.71 145.06 C 11.57 148.11 12.46 151.15 13.51 154.14 C 14.50 151.15 15.37 148.00 14.35 144.90 C 14.92 144.96 16.06 145.07 16.63 145.12 C 17.48 148.12 18.37 151.10 19.33 154.06 C 20.23 151.04 21.12 148.02 22.02 145.00 C 24.81 144.99 27.59 145.00 30.38 145.06 C 29.49 146.90 28.56 148.72 27.63 150.55 C 29.69 153.24 30.66 156.59 32.81 159.22 L 31.41 159.23 C 31.14 158.78 30.60 157.89 30.34 157.44 C 29.29 162.43 21.94 162.11 21.99 156.79 C 23.46 157.47 24.87 158.25 26.28 159.04 C 27.75 157.41 27.76 155.38 27.11 153.40 C 26.28 153.17 24.61 152.71 23.78 152.48 C 24.75 150.77 25.71 149.06 26.68 147.35 C 26.02 147.30 24.69 147.20 24.03 147.15 C 22.16 151.85 21.06 156.80 19.45 161.58 C 18.31 158.48 17.38 155.31 16.41 152.15 C 15.30 155.26 14.33 158.41 13.33 161.56 C 11.41 156.10 9.90 150.50 8.26 144.95 Z" />
</g>
<g id="#3d3119ff">
<path fill="#3d3119" opacity="1.00" d=" M 54.87 150.01 C 58.91 146.61 62.51 150.96 62.12 155.12 C 58.05 159.50 51.88 155.26 54.87 150.01 Z" />
<path fill="#3d3119" opacity="1.00" d=" M 86.82 158.77 C 87.11 158.47 87.67 157.86 87.95 157.56 C 88.03 161.37 88.02 165.18 87.99 168.99 C 60.48 168.84 32.94 169.36 5.45 168.72 C 17.36 166.35 29.86 168.38 42.00 167.70 C 56.89 167.56 71.79 167.96 86.67 167.49 C 86.67 164.58 86.64 161.67 86.82 158.77 Z" />
</g>
<g id="#312713ff">
<path fill="#312713" opacity="1.00" d=" M 63.73 156.11 C 62.27 151.56 65.22 146.90 70.25 149.78 C 70.52 151.63 70.85 153.46 71.21 155.29 C 69.04 157.13 66.26 157.12 63.73 156.11 Z" />
</g>
<g id="#990000ff">
<path fill="#990000" opacity="1.00" d=" M 87.75 150.32 C 88.19 149.96 89.09 149.25 89.53 148.90 C 90.69 150.12 91.87 151.34 93.06 152.54 C 91.34 154.19 89.60 155.83 87.95 157.56 C 87.67 157.86 87.11 158.47 86.82 158.77 C 84.45 161.25 81.92 163.56 79.40 165.87 C 76.65 163.51 74.03 161.00 71.55 158.37 C 72.64 157.29 73.74 156.23 74.83 155.16 C 76.37 156.30 77.91 157.44 79.45 158.59 C 81.94 156.10 84.34 153.52 86.89 151.10 L 87.75 150.32 Z" />
</g>
<g id="#fbfbfbff">
<path fill="#fbfbfb" opacity="1.00" d=" M 106.76 149.13 C 111.62 149.06 116.48 148.90 121.34 148.93 C 121.24 149.71 121.04 151.28 120.94 152.07 C 117.36 152.04 113.79 152.03 110.21 151.96 C 110.21 152.66 110.21 154.07 110.21 154.77 C 113.74 154.70 117.26 154.69 120.79 154.74 C 120.56 157.75 120.27 160.74 119.90 163.73 C 116.07 165.26 112.00 165.14 108.18 163.63 C 108.00 162.10 107.83 160.57 107.66 159.04 C 108.36 159.06 109.75 159.11 110.45 159.13 C 110.74 159.79 111.34 161.12 111.64 161.78 C 113.43 161.73 115.21 161.56 116.98 161.30 C 117.05 160.44 117.20 158.71 117.28 157.85 C 114.04 157.75 110.80 157.67 107.57 157.66 C 107.32 154.81 107.05 151.97 106.76 149.13 Z" />
</g>
</svg>
